<?xml version="1.0" standalone="no"?>
<!DOCTYPE svg PUBLIC "-//W3C//DTD SVG 20010904//EN"
 "http://www.w3.org/TR/2001/REC-SVG-20010904/DTD/svg10.dtd">
<svg version="1.0" xmlns="http://www.w3.org/2000/svg"
 width="508.000000pt" height="508.000000pt" viewBox="0 0 508.000000 508.000000"
 preserveAspectRatio="xMidYMid meet">
<metadata>
Created by potrace 1.11, written by Peter Selinger 2001-2013
</metadata>
<g transform="translate(0.000000,508.000000) scale(0.100000,-0.100000)"
fill="#000000" stroke="none">
<path d="M80 4591 c-7 -15 -7 -22 2 -27 7 -4 10 -4 6 1 -4 4 -3 16 3 26 5 11
7 19 5 19 -3 0 -10 -9 -16 -19z"/>
<path d="M65 4541 c-3 -5 -2 -12 3 -15 5 -3 9 1 9 9 0 17 -3 19 -12 6z"/>
<path d="M60 4510 c-8 -26 -7 -41 2 -32 6 6 8 16 5 24 -3 7 -6 11 -7 8z"/>
<path d="M1323 3865 c-64 -27 -61 53 -59 -1317 l1 -1248 27 -27 c22 -21 37
-27 77 -27 28 -1 51 -4 51 -8 0 -4 12 -3 28 1 15 4 41 4 57 1 17 -3 44 -3 60
0 17 4 42 3 58 -1 15 -4 27 -4 27 -1 0 4 19 6 42 5 79 -5 130 -5 135 0 2 3 18
1 34 -3 16 -5 31 -5 33 -1 5 7 92 5 113 -3 7 -3 14 -2 17 2 2 4 19 6 38 5 58
-3 82 -3 133 0 28 1 57 -1 66 -5 9 -4 19 -5 23 -1 8 8 771 7 785 -1 6 -4 11
-4 11 1 0 9 440 9 464 0 9 -4 16 -3 16 1 0 4 53 6 117 5 187 -2 217 22 214
176 -10 461 -163 942 -422 1328 -50 74 -173 233 -218 280 -12 12 -21 25 -21
30 0 4 81 89 180 189 99 99 181 190 181 200 5 65 -15 108 -57 124 -58 23 -80
8 -269 -180 -99 -99 -183 -180 -187 -180 -4 0 -13 6 -20 13 -23 22 -171 141
-228 183 -296 217 -692 379 -1070 438 -196 31 -391 40 -437 21z m307 -210
c296 -35 601 -130 822 -256 39 -21 72 -39 74 -39 5 0 205 -133 228 -151 69
-55 145 -117 161 -131 19 -18 5 -33 -710 -748 -401 -401 -730 -728 -732 -726
-2 2 -5 1425 -3 1943 l0 122 53 -4 c29 -2 77 -6 107 -10z m1533 -839 c112
-137 209 -291 292 -461 58 -120 125 -290 141 -360 2 -5 9 -35 17 -65 17 -63
44 -196 51 -255 9 -71 16 -129 21 -177 l4 -48 -1037 0 -1037 0 730 730 c401
402 732 730 736 730 3 0 40 -42 82 -94z"/>
<path d="M3161 3862 c-33 -15 -51 -50 -51 -95 1 -35 12 -54 50 -80 21 -15 54
-17 253 -17 l228 0 24 -25 25 -24 0 -227 c0 -211 1 -229 21 -260 35 -57 120
-59 161 -3 18 24 20 45 20 290 0 418 2 384 -31 421 l-29 33 -322 0 c-252 1
-327 -2 -349 -13z"/>
<path d="M56 594 c-4 -9 -4 -19 -1 -22 2 -3 7 3 11 12 4 9 4 19 1 22 -2 3 -7
-3 -11 -12z"/>
<path d="M68 545 c5 -11 11 -24 12 -30 1 -5 3 -12 6 -14 2 -2 1 7 -1 19 -3 13
-10 28 -16 34 -9 8 -9 6 -1 -9z"/>
<path d="M90 461 c0 -6 4 -13 10 -16 6 -3 7 1 4 9 -7 18 -14 21 -14 7z"/>
<path d="M109 418 c6 -7 36 -44 66 -82 30 -38 55 -65 55 -60 0 5 7 0 15 -10 8
-11 17 -17 20 -14 3 3 -12 20 -33 37 -22 17 -56 55 -77 86 -21 30 -42 55 -47
55 -5 0 -4 -6 1 -12z"/>
</g>
</svg>
