<?xml version="1.0" standalone="no"?>
<!DOCTYPE svg PUBLIC "-//W3C//DTD SVG 20010904//EN"
 "http://www.w3.org/TR/2001/REC-SVG-20010904/DTD/svg10.dtd">
<svg version="1.0" xmlns="http://www.w3.org/2000/svg"
 width="233.000000pt" height="90.000000pt" viewBox="0 0 233.000000 90.000000"
 preserveAspectRatio="xMidYMid meet">

<g transform="translate(0.000000,90.000000) scale(0.100000,-0.100000)"
fill="#000000" stroke="none">
<path d="M77 772 l-27 -28 0 -311 0 -312 24 -28 24 -28 432 0 432 0 24 28 c30
35 31 53 2 33 -15 -11 -45 -16 -85 -16 l-63 0 0 105 0 105 69 0 c39 0 73 -5
76 -10 22 -35 26 6 23 221 l-3 230 -25 19 c-24 19 -47 20 -451 20 l-425 0 -27
-28z m293 -526 l0 -75 48 -3 c43 -3 47 -5 47 -28 0 -25 -1 -25 -80 -25 l-80 0
-3 103 -3 102 36 0 35 0 0 -74z m260 49 c0 -22 -4 -25 -39 -25 -52 0 -63 -18
-14 -22 33 -3 38 -7 41 -30 3 -27 1 -28 -37 -28 -23 0 -41 -4 -41 -10 0 -5 20
-10 45 -10 28 0 45 -4 45 -12 0 -22 16 5 34 57 38 107 36 105 70 105 31 0 32
-2 64 -95 18 -52 32 -99 32 -105 0 -5 -14 -10 -31 -10 -22 0 -32 5 -36 20 -7
27 -49 27 -58 0 -6 -18 -15 -20 -115 -20 l-109 0 -3 101 c-2 55 -1 103 1 105
2 2 37 4 78 4 71 0 73 -1 73 -25z"/>
<path d="M726 215 c-3 -8 -1 -15 4 -15 6 0 10 7 10 15 0 8 -2 15 -4 15 -2 0
-6 -7 -10 -15z"/>
<path d="M1188 313 c7 -3 16 -2 19 1 4 3 -2 6 -13 5 -11 0 -14 -3 -6 -6z"/>
<path d="M1826 301 c23 -10 44 -26 47 -36 13 -33 7 -83 -14 -109 -25 -32 -18
-35 11 -4 22 24 27 86 10 119 -11 20 -60 49 -82 49 -7 0 5 -9 28 -19z"/>
<path d="M1411 307 c2 -1 13 -9 24 -17 19 -14 19 -14 6 3 -7 9 -18 17 -24 17
-6 0 -8 -1 -6 -3z"/>
<path d="M1513 215 c0 -79 1 -89 6 -47 4 30 4 75 0 100 -4 34 -6 19 -6 -53z"/>
<path d="M1654 215 c0 -55 1 -76 3 -47 2 29 2 74 0 100 -2 26 -3 2 -3 -53z"/>
<path d="M1735 278 c-23 -27 -26 -39 -22 -72 6 -41 43 -86 70 -86 7 1 -1 8
-16 16 -54 29 -62 100 -18 145 16 16 26 29 21 29 -4 0 -20 -14 -35 -32z"/>
<path d="M1972 303 c-19 -7 -42 -58 -42 -93 0 -33 46 -90 72 -90 7 1 1 7 -14
16 -57 30 -65 98 -19 145 29 28 29 33 3 22z"/>
<path d="M2071 281 c46 -47 38 -115 -19 -145 -15 -9 -21 -15 -14 -16 27 0 72
57 72 92 0 41 -35 97 -62 98 -3 0 7 -13 23 -29z"/>
<path d="M2162 218 l-2 -98 63 2 62 2 -57 3 -57 4 -4 92 -3 92 -2 -97z"/>
<path d="M1137 293 c-22 -21 2 -74 33 -72 9 0 7 4 -8 12 -19 8 -23 17 -20 39
5 30 5 31 -5 21z"/>
<path d="M1313 274 c-25 -39 -20 -90 13 -125 15 -16 35 -29 43 -28 11 0 10 3
-4 8 -53 22 -73 81 -46 134 22 43 19 48 -6 11z"/>
<path d="M910 219 c0 -46 2 -50 22 -47 14 2 26 14 33 32 8 24 6 31 -14 47 -35
28 -41 24 -41 -32z"/>
<path d="M1216 206 c17 -8 34 -21 37 -29 6 -17 -10 -42 -33 -50 -13 -5 -13 -6
1 -6 9 -1 24 8 33 18 23 25 13 59 -21 72 -38 14 -52 10 -17 -5z"/>
<path d="M1425 139 c-16 -10 -25 -19 -19 -19 7 0 22 9 35 20 30 24 23 24 -16
-1z"/>
</g>
</svg>
